<svg version="1.1" id="Layer_1" xmlns="http://www.w3.org/2000/svg" xmlns:xlink="http://www.w3.org/1999/xlink" x="0px" y="0px"
	 width="100%" viewBox="0 0 139 278" enable-background="new 0 0 139 278" xml:space="preserve">
<path fill="#010200" opacity="1.000000" stroke="none" 
	d="
M140.000000,103.000000 
	C140.000000,161.964920 140.000000,220.429825 140.000000,278.947388 
	C93.729591,278.947388 47.459106,278.947388 1.094309,278.947388 
	C1.094309,186.451874 1.094309,93.903610 1.094309,1.177674 
	C47.332790,1.177674 93.666328,1.177674 140.000000,1.177674 
	C140.000000,34.873993 140.000000,68.686996 140.000000,103.000000 
M89.864952,274.609009 
	C90.229050,274.400635 90.593147,274.192261 91.402107,273.733917 
	C91.584496,273.452545 91.766884,273.171204 92.560341,272.631134 
	C99.564522,267.629028 101.251778,260.916138 101.155716,252.388580 
	C100.686531,210.736618 100.892288,169.077072 100.850937,127.420227 
	C100.848305,124.772041 100.814758,122.631317 103.734810,120.746201 
	C125.405678,106.755966 135.114441,86.530884 133.172867,60.985268 
	C131.077896,33.421532 109.588936,10.138815 82.411583,5.216381 
	C53.748337,0.024816 26.154364,14.031175 13.671231,40.108131 
	C0.388725,67.854958 8.950755,100.778801 34.329758,118.693977 
	C37.153805,120.687492 38.226810,122.671623 38.033810,126.004234 
	C37.766869,130.613510 37.966808,135.249847 37.966808,140.013245 
	C42.110130,140.646637 45.845959,141.217743 49.716499,141.809448 
	C49.716499,143.910553 50.005085,145.628738 49.666275,147.212723 
	C48.240261,153.879471 50.784351,158.026154 57.294254,159.774323 
	C61.661068,160.947021 62.264767,163.933228 62.426693,168.038116 
	C62.602921,172.505356 61.375229,175.224228 57.254711,176.986023 
	C54.520138,178.155243 52.020458,179.894104 49.468163,181.463394 
	C47.161682,182.881561 44.460972,183.638565 44.867825,187.618332 
	C45.254723,191.402893 45.808548,194.340775 49.877956,195.656464 
	C51.753536,196.262878 53.358112,197.720718 55.237381,198.299988 
	C60.524788,199.929779 58.676853,204.254730 59.185966,207.789200 
	C59.681625,211.230270 58.183739,213.027481 55.137714,214.182068 
	C51.931412,215.397400 48.610287,217.177399 49.805454,221.228180 
	C50.420551,223.312958 52.606689,225.632034 54.644836,226.457016 
	C59.193913,228.298386 59.442234,231.941269 58.796997,235.462784 
	C58.454796,237.330414 56.098209,238.986923 54.369587,240.392731 
	C52.978752,241.523819 51.231964,242.319656 49.524937,242.938004 
	C46.063148,244.191986 45.059444,246.475342 44.891163,250.127548 
	C44.713596,253.981247 47.138847,254.876251 49.582840,256.226379 
	C53.517838,258.400116 57.433376,260.609009 61.359505,262.798798 
	C67.241982,266.079712 73.126503,269.356964 80.126770,273.258026 
	C80.126770,229.350891 80.126770,186.684464 80.126770,144.047348 
	C89.561661,143.808502 89.565369,143.808502 89.556404,151.987961 
	C89.514801,189.978973 89.465530,227.969986 89.443344,265.960999 
	C89.442184,267.945892 89.664749,269.930939 89.567795,272.322327 
	C89.648926,272.909546 89.730049,273.496735 89.864952,274.609009 
z"/>
<path fill="#AAD702" opacity="1.000000" stroke="none" 
	d="
M89.783157,271.915894 
	C89.664749,269.930939 89.442184,267.945892 89.443344,265.960999 
	C89.465530,227.969986 89.514801,189.978973 89.556404,151.987961 
	C89.565369,143.808502 89.561661,143.808502 80.126770,144.047348 
	C80.126770,186.684464 80.126770,229.350891 80.126770,273.258026 
	C73.126503,269.356964 67.241982,266.079712 61.359505,262.798798 
	C57.433376,260.609009 53.517838,258.400116 49.582840,256.226379 
	C47.138847,254.876251 44.713596,253.981247 44.891163,250.127548 
	C45.059444,246.475342 46.063148,244.191986 49.524937,242.938004 
	C51.231964,242.319656 52.978752,241.523819 54.369587,240.392731 
	C56.098209,238.986923 58.454796,237.330414 58.796997,235.462784 
	C59.442234,231.941269 59.193913,228.298386 54.644836,226.457016 
	C52.606689,225.632034 50.420551,223.312958 49.805454,221.228180 
	C48.610287,217.177399 51.931412,215.397400 55.137714,214.182068 
	C58.183739,213.027481 59.681625,211.230270 59.185966,207.789200 
	C58.676853,204.254730 60.524788,199.929779 55.237381,198.299988 
	C53.358112,197.720718 51.753536,196.262878 49.877956,195.656464 
	C45.808548,194.340775 45.254723,191.402893 44.867825,187.618332 
	C44.460972,183.638565 47.161682,182.881561 49.468163,181.463394 
	C52.020458,179.894104 54.520138,178.155243 57.254711,176.986023 
	C61.375229,175.224228 62.602921,172.505356 62.426693,168.038116 
	C62.264767,163.933228 61.661068,160.947021 57.294254,159.774323 
	C50.784351,158.026154 48.240261,153.879471 49.666275,147.212723 
	C50.005085,145.628738 49.716499,143.910553 49.716499,141.809448 
	C45.845959,141.217743 42.110130,140.646637 37.966808,140.013245 
	C37.966808,135.249847 37.766869,130.613510 38.033810,126.004234 
	C38.226810,122.671623 37.153805,120.687492 34.329758,118.693977 
	C8.950755,100.778801 0.388725,67.854958 13.671231,40.108131 
	C26.154364,14.031175 53.748337,0.024816 82.411583,5.216381 
	C109.588936,10.138815 131.077896,33.421532 133.172867,60.985268 
	C135.114441,86.530884 125.405678,106.755966 103.734810,120.746201 
	C100.814758,122.631317 100.848305,124.772041 100.850937,127.420227 
	C100.892288,169.077072 100.686531,210.736618 101.155716,252.388580 
	C101.251778,260.916138 99.564522,267.629028 92.009674,272.588104 
	C90.900398,272.335358 90.341774,272.125610 89.783157,271.915894 
M124.157883,63.648262 
	C121.698730,31.817602 94.435509,9.758756 62.720470,13.938860 
	C32.713692,17.893812 12.086760,47.324352 17.922403,77.856827 
	C22.976065,104.297928 48.610954,123.471344 75.242699,120.729095 
	C104.534271,117.712952 124.914459,94.352631 124.157883,63.648262 
z"/>
<path fill="#B8E902" opacity="1.000000" stroke="none" 
	d="
M89.675476,272.119110 
	C90.341774,272.125610 90.900398,272.335358 91.704147,272.717468 
	C91.766884,273.171204 91.584496,273.452545 90.892166,273.872559 
	C90.191879,274.035461 90.001526,274.059723 89.811180,274.083954 
	C89.730049,273.496735 89.648926,272.909546 89.675476,272.119110 
z"/>
<path fill="#AAD702" opacity="1.000000" stroke="none" 
	d="
M89.838066,274.346497 
	C90.001526,274.059723 90.191879,274.035461 90.669731,273.997528 
	C90.593147,274.192261 90.229050,274.400635 89.838066,274.346497 
z"/>
<path fill="#090B00" opacity="1.000000" stroke="none" 
	d="
M124.183456,64.125412 
	C124.914459,94.352631 104.534271,117.712952 75.242699,120.729095 
	C48.610954,123.471344 22.976065,104.297928 17.922403,77.856827 
	C12.086760,47.324352 32.713692,17.893812 62.720470,13.938860 
	C94.435509,9.758756 121.698730,31.817602 124.183456,64.125412 
M31.647018,93.774956 
	C46.391682,112.675545 70.721870,118.644623 91.502060,108.459564 
	C112.003166,98.411293 122.626335,75.289070 116.413551,53.075432 
	C110.957993,33.569221 97.726730,21.518486 77.934891,18.415695 
	C58.009087,15.291901 41.241024,22.336452 30.252712,39.666668 
	C18.998692,57.415947 19.865738,75.554161 31.647018,93.774956 
z"/>
<path fill="#ABD902" opacity="1.000000" stroke="none" 
	d="
M31.425432,93.490921 
	C19.865738,75.554161 18.998692,57.415947 30.252712,39.666668 
	C41.241024,22.336452 58.009087,15.291901 77.934891,18.415695 
	C97.726730,21.518486 110.957993,33.569221 116.413551,53.075432 
	C122.626335,75.289070 112.003166,98.411293 91.502060,108.459564 
	C70.721870,118.644623 46.391682,112.675545 31.425432,93.490921 
M57.020458,62.405319 
	C65.787666,71.081001 77.588120,71.269493 85.118370,62.854134 
	C92.321617,54.804211 91.340004,42.748699 82.917091,35.819584 
	C76.053413,30.173172 65.824509,30.322517 59.066547,36.167809 
	C51.595596,42.629795 50.640911,52.448093 57.020458,62.405319 
z"/>
<path fill="#020300" opacity="1.000000" stroke="none" 
	d="
M56.796478,62.111374 
	C50.640911,52.448093 51.595596,42.629795 59.066547,36.167809 
	C65.824509,30.322517 76.053413,30.173172 82.917091,35.819584 
	C91.340004,42.748699 92.321617,54.804211 85.118370,62.854134 
	C77.588120,71.269493 65.787666,71.081001 56.796478,62.111374 
z"/>
</svg>