<svg version="1.1" id="Layer_1" xmlns="http://www.w3.org/2000/svg" xmlns:xlink="http://www.w3.org/1999/xlink" x="0px" y="0px"
	 width="100%" viewBox="0 0 5409 2015" enable-background="new 0 0 5409 2015" xml:space="preserve">
<path  opacity="1.000000" stroke="none"
	d="
M5412.000000,1824.000000 
	C5412.000000,1888.661499 5412.000000,1953.323120 5412.000000,2017.988525 
	C3608.814697,2017.992310 1805.629272,2017.992310 2.221960,2017.992310 
	C2.221960,1346.201294 2.221960,674.402466 2.221960,2.000000 
	C843.398682,2.000000 1684.797485,2.000000 2526.500977,2.646834 
	C2535.967773,35.990669 2547.277832,67.948364 2560.010498,99.409241 
	C2596.286865,189.044510 2645.259766,271.641632 2700.270020,350.789612 
	C2729.946045,393.487213 2763.077881,433.552551 2797.073242,472.864075 
	C2815.354980,494.004974 2833.460693,515.382202 2852.975098,535.353821 
	C2882.312500,565.378296 2913.003418,594.074707 2942.789551,623.667175 
	C3039.497314,719.746582 3139.030518,812.833557 3239.724609,904.697266 
	C3343.126953,999.032166 3449.036865,1090.465210 3557.149902,1179.359985 
	C3652.349854,1257.636963 3747.226807,1336.262817 3846.978760,1408.846558 
	C3972.229492,1499.984009 4098.886230,1588.950317 4231.298340,1669.504639 
	C4279.357422,1698.741821 4327.673340,1727.435791 4379.283691,1750.098633 
	C4494.061523,1800.499390 4614.685547,1829.655640 4738.199707,1847.829834 
	C4774.723633,1853.204102 4811.517090,1857.047241 4848.304688,1860.243652 
	C4885.767578,1863.499146 4923.347168,1866.166992 4960.925781,1867.117676 
	C4999.538574,1868.094360 5038.236816,1867.432129 5076.850098,1866.104858 
	C5114.448242,1864.812378 5152.032715,1862.352295 5189.539551,1859.353271 
	C5240.305664,1855.293945 5290.906250,1849.449097 5340.938477,1839.699341 
	C5364.741211,1835.060791 5388.319824,1829.269165 5412.000000,1824.000000 
z"/>
</svg>

