<svg version="1.1" id="Layer_1" xmlns="http://www.w3.org/2000/svg" xmlns:xlink="http://www.w3.org/1999/xlink" x="0px" y="0px"
	 width="100%" viewBox="0 0 172 281" enable-background="new 0 0 172 281" xml:space="preserve">
<path fill="#A7D402" opacity="1.000000" stroke="none" 
	d="
M112.489685,13.444525 
	C117.368233,11.285941 121.904854,9.227970 126.540718,7.425193 
	C129.149323,6.410769 131.710709,6.800947 132.605988,9.885315 
	C133.586044,13.261745 131.030106,14.135884 128.474014,14.837153 
	C106.339737,20.909763 95.333893,38.819641 92.696053,59.421570 
	C92.616547,60.042538 92.776009,60.694103 92.841034,61.556610 
	C103.197182,63.650108 112.070641,68.253593 118.433022,76.778122 
	C120.595833,79.675911 122.464325,82.903175 123.883041,86.229111 
	C135.046326,112.399368 146.108749,138.612930 157.122269,164.846725 
	C169.500275,194.330673 166.530075,222.166092 145.940628,246.763016 
	C125.460167,271.229767 98.621719,279.157959 67.684654,272.016602 
	C34.768658,264.418427 10.208868,232.808090 9.887403,199.194183 
	C9.768502,186.761383 12.351172,175.141953 17.197672,163.811127 
	C28.386614,137.652023 39.477791,111.450623 50.480556,85.212669 
	C53.697960,77.540222 59.262554,72.024384 66.332481,66.880424 
	C47.903664,59.812847 39.449036,46.055710 37.833256,26.976665 
	C58.420155,24.306881 75.292290,29.076836 86.830811,47.924156 
	C91.672493,33.278641 99.505096,21.618179 112.489685,13.444525 
M147.435028,231.838516 
	C158.086990,212.615494 160.042099,192.468918 151.868942,172.129791 
	C140.387802,143.558716 128.331451,115.205238 115.853661,87.054543 
	C110.475143,74.920280 100.007980,68.742920 86.614174,68.909393 
	C73.463356,69.072853 63.324608,75.265053 58.041164,87.299744 
	C45.796154,115.191597 33.979481,143.276184 22.347513,171.430695 
	C15.582421,187.805237 15.256556,204.709137 21.717733,221.203979 
	C32.265900,248.132584 52.266506,264.004364 81.045876,266.512177 
	C109.636032,269.003479 131.713516,256.731598 147.435028,231.838516 
M47.072678,34.307991 
	C48.710476,50.643280 67.102631,64.016006 83.063728,60.476681 
	C80.777191,44.690369 66.308144,33.771042 47.072678,34.307991 
z"/>
<path fill="#A7D302" opacity="1.000000" stroke="none" 
	d="
M127.033203,181.045837 
	C133.087219,199.173843 129.332184,214.719894 115.839455,227.537338 
	C103.298019,239.451096 84.528831,242.457382 69.360542,235.126343 
	C52.606213,227.028732 44.151295,213.320908 44.184040,194.742981 
	C44.218147,175.391174 60.012527,156.543533 78.546745,154.172211 
	C100.843422,151.319504 117.441475,159.302307 127.033203,181.045837 
M60.002445,173.561264 
	C50.422199,185.795761 48.841068,199.101105 56.118076,212.725922 
	C63.314045,226.199005 75.268677,232.501678 90.450562,231.030472 
	C105.200897,229.601120 115.331718,221.289398 120.302055,207.319580 
	C125.775444,191.935837 119.336586,174.689240 105.351700,166.084717 
	C90.781349,157.119934 73.269699,159.826050 60.002445,173.561264 
z"/>
<path fill="#A8D502" opacity="1.000000" stroke="none" 
	d="
M96.259781,175.619629 
	C93.813438,174.507874 91.416840,173.942993 89.622742,172.583206 
	C88.322281,171.597565 87.820236,169.558487 86.962173,167.989151 
	C88.531891,167.158005 90.382439,165.311539 91.627052,165.655792 
	C101.895569,168.495941 109.635406,174.810196 114.574844,184.232300 
	C115.183891,185.394058 113.760605,187.621262 113.279099,189.354736 
	C111.579430,188.871353 109.416763,188.886261 108.263580,187.814758 
	C104.178551,184.019089 100.438431,179.852203 96.259781,175.619629 
z"/>
<path fill="#A5D102" opacity="1.000000" stroke="none" 
	d="
M111.216454,198.192566 
	C112.697502,196.467331 114.200676,195.156433 115.703857,193.845551 
	C116.799919,195.802765 118.660606,197.722107 118.759987,199.728683 
	C118.845787,201.461365 117.160614,204.615479 115.855270,204.844574 
	C111.071266,205.684204 111.621582,201.606628 111.216454,198.192566 
z"/>
</svg>