<svg version="1.1" id="Layer_1" xmlns="http://www.w3.org/2000/svg" xmlns:xlink="http://www.w3.org/1999/xlink" x="0px" y="0px"
	 width="100%" viewBox="0 0 351 233" enable-background="new 0 0 351 233" xml:space="preserve">
<path opacity="1.000000" stroke="none" 
	d="
M281.889038,162.730728 
	C298.988953,116.004402 315.973572,69.647621 332.958221,23.290834 
	C332.625916,23.052147 332.293640,22.813459 331.961334,22.574770 
	C330.195099,23.907694 328.565918,25.523598 326.612335,26.469704 
	C325.398315,27.057652 323.692993,26.631033 322.208160,26.659782 
	C322.361786,25.188541 321.945953,23.089394 322.762360,22.348970 
	C327.694183,17.876181 332.824951,13.608602 338.064240,9.495377 
	C340.474945,7.602796 342.576691,8.394255 343.215820,11.478259 
	C344.567200,17.999155 345.885620,24.535181 346.859955,31.117929 
	C347.026978,32.246140 345.423401,33.636421 344.637756,34.905632 
	C343.484894,33.951637 341.774689,33.215092 341.299408,31.996761 
	C340.408752,29.713804 340.233246,27.151873 339.494507,23.331713 
	C338.374054,26.061579 337.664948,27.637194 337.072235,29.255436 
	C318.981964,78.645386 300.931793,128.050110 282.733521,177.400208 
	C281.867554,179.748566 279.705200,181.618866 278.146545,183.711792 
	C276.817871,181.412323 274.945923,179.267075 274.242828,176.790039 
	C265.060486,144.441330 256.044830,112.045311 246.981262,79.662872 
	C246.582489,78.238106 246.126236,76.829430 245.423813,74.513229 
	C244.400101,76.640511 243.654984,78.045166 243.033356,79.502495 
	C235.065628,98.181564 227.151947,116.883904 219.098511,135.525864 
	C218.379608,137.189972 216.782333,138.474609 215.592987,139.935471 
	C214.149719,138.703323 212.319305,137.722687 211.328125,136.196869 
	C206.174591,128.263489 201.234879,120.191200 195.700302,111.334488 
	C194.439880,114.441429 193.465515,116.776833 192.541733,119.132095 
	C189.016602,128.119568 185.572144,137.139389 181.961121,146.092102 
	C180.521637,149.660965 179.163544,152.710297 182.008408,156.609589 
	C184.284561,159.729401 182.755753,163.446350 179.854553,165.987045 
	C176.769150,168.689072 173.187241,169.071136 169.706863,166.813553 
	C166.250961,164.571854 164.572006,160.896637 166.286560,157.295822 
	C167.985458,153.727859 166.667801,151.384750 165.200638,148.580429 
	C156.170792,131.320740 147.199982,114.030190 138.197861,96.755981 
	C137.516769,95.449043 136.745285,94.189240 135.542068,92.075134 
	C124.301361,115.204910 113.378227,137.681213 102.385674,160.300385 
	C103.335060,161.639832 104.461800,162.860641 105.162598,164.290237 
	C106.966446,167.970032 106.528450,171.478683 103.511299,174.341049 
	C100.515800,177.182861 96.958092,177.674667 93.410156,175.544846 
	C89.932434,173.457153 88.015854,170.071121 89.556801,166.214828 
	C90.851387,162.975067 89.882187,161.082611 87.933357,158.775497 
	C82.574783,152.431747 77.404442,145.929001 71.840782,139.097672 
	C70.417030,140.991287 69.221519,142.486526 68.126411,144.052017 
	C50.368168,169.437897 32.623592,194.833359 14.871367,220.223465 
	C14.013066,221.451050 13.331417,222.968994 12.166639,223.765472 
	C11.135419,224.470566 9.183491,224.955566 8.309414,224.427155 
	C7.533586,223.958145 7.239061,221.852554 7.535404,220.670822 
	C7.877933,219.304901 9.083801,218.148438 9.941790,216.919876 
	C27.775179,191.383652 45.614414,165.851517 63.444653,140.313095 
	C64.717918,138.489380 66.294624,137.108521 64.403809,134.288254 
	C61.720032,130.285233 62.813908,125.754517 66.331276,123.171181 
	C69.651932,120.732323 73.174309,120.694458 76.554794,123.040962 
	C80.134453,125.525742 80.956932,129.779541 78.870888,134.188858 
	C78.521843,134.926636 78.073685,135.617508 77.506065,136.622696 
	C83.556961,144.072388 89.596542,151.508148 96.124870,159.545639 
	C98.403831,154.874435 100.350174,150.900986 102.282806,146.920883 
	C110.935570,129.101212 119.643074,111.307426 128.129318,93.408752 
	C128.849487,91.889824 128.629898,89.415283 127.899261,87.818207 
	C126.025253,83.721802 125.900146,80.029320 129.291687,76.850716 
	C132.483368,73.859421 136.206711,73.705788 139.852600,76.015793 
	C143.521469,78.340363 144.361023,82.560974 142.601685,87.065956 
	C142.076340,88.411163 141.663483,90.359970 142.245987,91.494881 
	C152.204453,110.897041 162.326263,130.215363 172.422226,149.546860 
	C172.649872,149.982758 172.995193,150.357208 173.589325,151.181870 
	C178.839218,137.823212 183.931427,125.013466 188.827835,112.129288 
	C189.223969,111.086929 188.570923,109.357018 187.902740,108.250023 
	C185.297592,103.934044 185.405411,99.973969 188.571472,96.889771 
	C191.718903,93.823715 195.399551,93.255272 199.047592,95.634888 
	C203.047363,98.243942 203.981949,102.051682 202.300461,106.577217 
	C201.893753,107.671875 201.578125,109.279007 202.082260,110.154144 
	C204.906296,115.056679 207.986847,119.811852 210.996246,124.607033 
	C212.110596,126.382622 213.269608,128.130157 214.831177,130.544357 
	C220.358414,117.617493 225.584427,105.404037 230.802399,93.187141 
	C232.829224,88.441757 234.855530,83.696014 236.849045,78.936615 
	C238.353363,75.345161 240.123703,72.128815 237.902008,67.753258 
	C236.079193,64.163254 238.260574,60.513279 241.802887,58.512802 
	C245.354370,56.507149 248.956635,56.940826 251.898560,59.876762 
	C254.821030,62.793262 255.581619,66.537003 253.285828,69.892456 
	C251.386154,72.668961 251.782272,74.971733 252.573242,77.775810 
	C261.198395,108.352638 269.748718,138.950562 278.644226,170.702133 
	C279.951782,167.525925 280.862793,165.313095 281.889038,162.730728 
M332.457733,22.988855 
	C332.531342,22.759722 332.604950,22.530590 332.678558,22.301462 
	C332.451263,22.379782 332.223999,22.458103 332.457733,22.988855 
z"/>
</svg>