<svg version="1.1" id="Layer_1" xmlns="http://www.w3.org/2000/svg" xmlns:xlink="http://www.w3.org/1999/xlink" x="0px" y="0px"
	 width="100%" viewBox="0 0 302 284" enable-background="new 0 0 302 284" xml:space="preserve">
<path opacity="1.000000" stroke="none" 
	d="
M178.855865,36.108315 
	C183.294540,38.024307 187.364777,39.821869 192.645691,42.154118 
	C185.913162,48.618729 179.955383,54.574287 173.655960,60.143379 
	C172.673615,61.011848 169.985229,60.548042 168.336624,59.976559 
	C139.317703,49.917263 111.198250,51.844334 84.540443,67.154716 
	C46.227379,89.159073 27.445938,132.936981 37.547119,175.233093 
	C47.857937,218.407013 84.068825,248.826431 128.412445,251.565613 
	C199.586899,255.962204 252.147476,183.812714 226.092422,117.300217 
	C224.517990,113.281029 224.841705,110.897949 228.065491,107.996681 
	C233.371384,103.221626 238.167007,97.879578 243.474335,92.474518 
	C255.414291,114.482857 260.572693,137.453156 258.631592,161.747665 
	C254.466034,213.882278 221.202927,256.315765 171.484222,271.913300 
	C100.706139,294.117462 28.293207,251.564819 12.109876,181.007446 
	C-2.968962,115.265556 35.124783,50.952915 100.019547,32.345474 
	C126.427147,24.773556 152.725433,26.283792 178.855865,36.108315 
z"/>
<path opacity="1.000000" stroke="none" 
	d="
M120.831337,133.182861 
	C125.207108,139.635086 129.374008,145.796982 133.694595,152.186096 
	C141.024414,142.231247 148.041153,132.341095 155.428207,122.735748 
	C178.840607,92.292755 204.044266,63.489670 234.182068,39.427380 
	C249.480652,27.212877 266.730621,18.203472 284.617401,10.381775 
	C288.620544,8.631242 292.014221,9.339147 295.248138,12.777299 
	C293.536499,14.392062 291.879822,15.984921 290.191437,17.543428 
	C239.534027,64.303970 196.634705,117.208282 162.831985,177.430588 
	C154.128326,192.936890 144.393509,207.865723 135.081390,223.028519 
	C131.268448,229.237061 128.231705,229.395706 124.894165,222.803421 
	C117.020828,207.252075 109.697868,191.423019 102.048988,175.756714 
	C98.259224,167.994553 94.570679,160.153656 90.257401,152.682617 
	C81.533844,137.572556 80.703445,137.210785 63.066555,134.688873 
	C65.360352,130.846573 66.940674,126.970894 69.564980,124.025330 
	C78.799622,113.660202 95.630249,111.763794 106.815636,120.008972 
	C111.848724,123.719048 116.045975,128.563034 120.831337,133.182861 
z"/>
</svg>