<svg version="1.1" id="Layer_1" xmlns="http://www.w3.org/2000/svg" xmlns:xlink="http://www.w3.org/1999/xlink" x="0px" y="0px"
	 width="100%" viewBox="0 0 299 283" enable-background="new 0 0 299 283" xml:space="preserve">
<path fill="#A8D502" opacity="1.000000" stroke="none" 
	d="
M12.042889,178.000000 
	C12.043585,160.338287 12.226394,143.173737 11.959804,126.016174 
	C11.844886,118.620071 14.765362,113.205811 20.492641,108.959869 
	C31.596466,100.728012 44.618244,97.342659 57.891102,96.284698 
	C71.920197,95.166451 86.107567,96.033798 100.877037,96.033798 
	C100.877037,93.890350 100.877029,92.124969 100.877037,90.359589 
	C100.877121,73.864349 101.176231,57.361481 100.755562,40.876976 
	C100.533501,32.175388 104.228165,26.298550 111.100433,21.747196 
	C121.214706,15.048738 132.657104,12.017915 144.402893,10.415339 
	C165.710571,7.508153 186.999634,7.636810 207.741745,14.145078 
	C213.861267,16.065199 219.805862,18.946663 225.343765,22.213003 
	C232.079361,26.185762 235.258240,32.330212 235.219574,40.559025 
	C235.016754,83.712280 235.186157,126.867241 235.023682,170.020844 
	C235.008728,173.993408 236.288712,175.770050 239.820267,177.438751 
	C253.306381,183.811096 265.698059,191.938873 276.068329,202.768036 
	C279.492310,206.343506 282.521393,210.414780 285.121521,214.634888 
	C289.421783,221.614487 290.060425,228.832108 285.781006,236.366104 
	C282.169586,242.724136 278.700623,249.251312 276.051544,256.047760 
	C271.734131,267.124573 263.030212,270.546051 252.347672,270.869019 
	C240.341202,271.232025 228.840561,268.363831 217.742889,264.142303 
	C209.983566,261.190674 202.598862,257.266907 194.911667,254.106049 
	C192.142639,252.967453 188.986252,252.299408 185.994339,252.255600 
	C172.716827,252.061188 159.434845,252.171356 145.988831,252.171356 
	C141.801773,261.834564 133.417419,266.665863 124.094688,269.714111 
	C94.555588,279.372528 64.847519,279.363434 35.214306,269.993439 
	C31.440451,268.800171 27.807135,266.970276 24.347755,265.012878 
	C16.046492,260.315796 11.661279,253.650711 11.892521,243.478195 
	C12.384655,221.828842 12.042843,200.160538 12.042889,178.000000 
M176.312820,127.695976 
	C170.869461,127.819046 165.426117,127.942116 159.080917,128.176178 
	C154.989075,127.947220 150.897232,127.718254 146.330978,127.462746 
	C146.330978,133.767578 146.513596,139.739929 146.260483,145.693756 
	C146.115402,149.106705 147.638885,150.114304 150.638168,150.090347 
	C162.929688,149.992142 175.358337,151.017441 187.470978,149.503937 
	C197.687424,148.227356 207.733322,144.530594 217.445755,140.831329 
	C220.985397,139.483154 224.882355,135.464844 225.876312,131.900635 
	C227.309189,126.762573 226.242554,120.927475 226.242554,115.106537 
	C209.413605,123.824554 192.452347,128.253647 176.312820,127.695976 
M88.348038,244.789886 
	C81.882339,244.922195 75.416641,245.054520 68.050377,245.279694 
	C51.637459,244.189545 35.789032,241.026321 20.831877,231.951172 
	C20.831877,235.974136 21.200928,239.449371 20.757271,242.817535 
	C19.743336,250.515213 23.525478,255.112518 29.928709,258.252502 
	C32.016930,259.276520 34.102222,260.348297 36.284359,261.132538 
	C57.496841,268.755981 79.364914,269.943146 101.333946,266.205292 
	C111.039398,264.553955 120.556465,261.060059 129.714294,257.315094 
	C133.025208,255.961136 136.389740,251.786560 137.315704,248.264420 
	C138.609772,243.342163 137.641998,237.825287 137.641998,231.918259 
	C122.306732,241.110550 106.058662,244.580368 88.348038,244.789886 
M181.770462,194.690247 
	C202.446671,216.231369 227.986008,228.558029 257.079407,233.656586 
	C262.631226,234.629501 268.731110,233.925461 274.328033,232.776688 
	C279.780090,231.657639 281.705170,227.456558 279.216766,222.427231 
	C276.826294,217.595871 273.777679,212.776627 269.969421,209.013519 
	C251.637787,190.899063 229.485489,179.436646 204.412933,174.060944 
	C196.943146,172.459366 188.901672,172.540451 181.229965,173.168213 
	C174.809830,173.693573 172.577805,178.564041 175.219360,184.500580 
	C176.750229,187.941010 179.236877,190.956146 181.770462,194.690247 
M120.491570,137.142334 
	C124.617668,135.016663 129.060532,133.335022 132.799942,130.667313 
	C139.368774,125.981140 139.388123,120.304131 132.556870,115.861099 
	C127.609184,112.643150 122.027634,109.987656 116.361542,108.358223 
	C92.632019,101.534172 68.607368,101.322159 44.785557,107.611435 
	C37.706295,109.480461 30.810488,113.007446 24.622601,117.001678 
	C19.128757,120.547913 19.363214,125.850822 24.619240,129.807388 
	C28.544754,132.762390 33.019226,135.406754 37.662918,136.920212 
	C64.920784,145.804123 92.338745,145.681259 120.491570,137.142334 
M172.906158,57.524963 
	C181.973206,56.356461 191.162186,55.752563 200.066360,53.829773 
	C206.476303,52.445583 212.847443,49.933758 218.631577,46.806988 
	C229.046936,41.176682 228.848251,33.997292 218.528030,27.999386 
	C215.526993,26.255238 212.301239,24.743954 208.997223,23.699139 
	C181.850418,15.114574 154.584183,15.054676 127.451691,23.539112 
	C122.338638,25.137983 117.418770,28.078377 113.107338,31.325861 
	C108.197914,35.023788 108.248528,39.570908 112.911461,43.533787 
	C116.021622,46.177017 119.715118,48.394840 123.500359,49.937126 
	C139.035095,56.266705 155.413742,57.693100 172.906158,57.524963 
M115.512878,201.139175 
	C118.937500,199.870316 122.463951,198.821640 125.768486,197.293152 
	C137.843353,191.708054 141.260056,183.142548 137.057892,170.835587 
	C98.286751,187.945923 59.712444,187.963211 21.070906,170.657440 
	C19.456448,190.543823 22.437920,194.938187 41.720688,200.841980 
	C42.038452,200.939255 42.367588,200.998734 42.689194,201.084229 
	C66.679962,207.461258 90.695511,207.493866 115.512878,201.139175 
M121.680168,208.197800 
	C87.412239,218.009216 53.851257,217.263748 20.830198,201.539078 
	C20.830198,204.067017 21.186720,206.725601 20.768021,209.255905 
	C19.025166,219.788300 24.333046,226.071884 33.579090,228.744888 
	C44.692101,231.957611 56.032787,235.048416 67.481033,236.287491 
	C87.010460,238.401245 106.441238,236.651840 124.800385,228.887512 
	C137.932434,223.333832 141.221756,215.263443 136.963455,201.591858 
	C132.140518,203.710007 127.288208,205.841049 121.680168,208.197800 
M113.774200,170.405487 
	C116.935623,169.373489 120.149391,168.477661 123.249466,167.286057 
	C137.164047,161.937546 141.118515,153.701721 136.861740,138.923813 
	C119.031929,149.388931 99.451172,152.081451 79.238678,152.115158 
	C58.912109,152.149048 39.257526,149.258301 20.823914,138.613770 
	C20.823914,143.166534 21.160301,147.016327 20.748180,150.784271 
	C20.062508,157.053223 23.050581,161.241302 28.180824,163.657913 
	C34.309422,166.544815 40.650257,169.331589 47.200867,170.908112 
	C69.088196,176.175705 91.081482,175.761536 113.774200,170.405487 
M256.168671,242.367798 
	C220.674606,236.078354 190.560806,220.536880 168.114777,191.813919 
	C158.692612,208.155228 156.158081,209.195786 170.565704,225.498901 
	C171.774124,226.866318 173.143158,228.103073 174.514297,229.313614 
	C189.734741,242.751282 207.238586,252.238098 226.639130,257.821564 
	C235.168625,260.276337 244.223190,261.378845 253.109634,261.902191 
	C256.972473,262.129639 262.138855,260.408569 264.699860,257.681641 
	C268.270050,253.880142 269.952148,248.305420 272.956024,242.496017 
	C266.930420,242.496017 261.998566,242.496017 256.168671,242.367798 
M114.365112,76.115746 
	C119.285500,78.473930 123.984352,81.788208 129.172607,82.990318 
	C139.816910,85.456604 150.664398,87.645004 161.535538,88.397316 
	C179.251480,89.623299 196.818481,87.778412 213.385986,80.710213 
	C226.662781,75.045921 229.905502,67.325180 225.739044,53.927338 
	C187.105392,70.607811 148.668594,70.911850 109.587135,53.533813 
	C109.587135,57.392208 109.758659,61.484245 109.539314,65.555222 
	C109.316162,69.696815 110.485733,73.077606 114.365112,76.115746 
M200.512650,94.005432 
	C169.271271,99.988678 138.745865,99.341660 109.791321,84.173401 
	C107.615654,95.744797 108.140938,96.638367 118.484520,99.796623 
	C128.135239,102.743324 137.237900,106.518990 143.715164,114.927605 
	C145.117905,116.748619 147.771561,118.635872 149.900574,118.696976 
	C161.848846,119.039925 173.850998,119.419708 185.760620,118.645836 
	C197.243118,117.899727 208.583618,115.303886 218.516373,109.093285 
	C221.658081,107.128883 225.128220,103.781609 225.946030,100.452568 
	C227.196121,95.363770 226.273956,89.741348 226.273956,84.984581 
	C217.783218,88.003548 209.556412,90.928665 200.512650,94.005432 
M226.284866,162.936310 
	C226.284866,157.526871 226.284866,152.117432 226.284866,146.351715 
	C200.931091,160.266037 174.089035,161.070847 146.582275,158.601669 
	C146.582275,166.195038 146.582275,173.288895 146.582275,180.796692 
	C149.895462,181.169235 153.044250,181.303314 156.096634,181.916946 
	C160.934799,182.889603 163.822388,181.340866 165.486481,176.526825 
	C168.323303,168.320160 174.899124,164.936813 183.070984,163.870499 
	C194.586868,162.367813 205.691147,164.568451 216.481430,168.112976 
	C221.637558,169.806717 224.353058,168.496033 226.284866,162.936310 
M164.650925,231.840363 
	C163.194565,230.244186 161.319336,228.864838 160.359818,227.011444 
	C157.397537,221.289536 152.426819,220.798691 146.684448,221.153915 
	C146.684448,228.424759 146.684448,235.605621 146.684448,243.628387 
	C157.199158,243.628387 167.354904,243.628387 177.908737,243.628387 
	C173.499649,239.731934 169.323853,236.041672 164.650925,231.840363 
M146.305420,191.851288 
	C146.305420,198.456940 146.305420,205.062607 146.305420,211.806610 
	C148.458221,212.065140 150.037125,212.254745 150.313110,212.287888 
	C152.773651,204.830917 155.054428,197.918747 157.638672,190.086868 
	C153.878601,190.366333 150.146652,190.643723 146.305420,191.851288 
z"/>
<path fill="#96BF02" opacity="1.000000" stroke="none" 
	d="
M88.707298,245.002625 
	C82.619324,245.301193 76.172096,245.386993 69.337906,245.329819 
	C75.416641,245.054520 81.882339,244.922195 88.707298,245.002625 
z"/>
<path fill="#9DC702" opacity="1.000000" stroke="none" 
	d="
M176.673264,127.900040 
	C171.609680,128.173904 166.185669,128.243713 160.372192,128.189362 
	C165.426117,127.942116 170.869461,127.819046 176.673264,127.900040 
z"/>
</svg>