<svg version="1.1" id="Layer_1" xmlns="http://www.w3.org/2000/svg" xmlns:xlink="http://www.w3.org/1999/xlink" x="0px" y="0px"
	 width="100%" viewBox="0 0 285 281" enable-background="new 0 0 285 281" xml:space="preserve">
<path opacity="1.000000" stroke="none" 
	d="
M148.144989,135.132416 
	C150.617157,138.137939 153.163147,140.641434 154.944336,143.604630 
	C156.889511,146.840729 158.767548,147.644867 162.561264,146.466461 
	C176.219025,142.224091 176.335205,141.450195 180.208878,156.512604 
	C181.908051,163.119659 183.976166,169.631073 185.738724,176.222824 
	C187.072296,181.210220 185.907104,184.020264 180.842148,184.586517 
	C171.499649,185.631012 167.953842,190.116806 167.694778,199.501602 
	C167.559372,204.406601 168.175415,206.718933 172.522491,209.002029 
	C183.903412,214.979279 183.782578,215.207321 177.402481,226.519974 
	C174.703827,231.304977 171.991226,236.082230 169.318985,240.881958 
	C167.230011,244.634033 163.935181,246.051834 160.648224,243.350952 
	C152.902802,236.986603 146.597397,238.027603 139.542664,244.821045 
	C136.391861,247.855164 135.522705,249.757812 136.742172,253.819473 
	C140.589981,266.635284 140.413254,266.692169 127.423767,270.305420 
	C120.367783,272.268158 113.288834,274.151306 106.256721,276.195801 
	C102.013680,277.429443 98.843819,275.937439 98.446182,271.780212 
	C97.513718,262.031525 92.759979,257.992310 82.889671,258.093323 
	C78.744705,258.135742 76.456093,258.237030 74.391602,262.247345 
	C68.249603,274.178253 68.050308,274.075348 56.283627,267.549316 
	C51.625385,264.965759 47.007103,262.306335 42.295300,259.824432 
	C38.268051,257.703125 36.716908,254.452347 39.582676,250.892532 
	C45.642403,243.365219 45.345127,237.255554 38.270306,230.230850 
	C35.076241,227.059402 33.206963,225.845352 28.898783,227.145218 
	C16.363747,230.927277 16.308043,230.734940 12.790617,218.136963 
	C10.776369,210.922760 8.833832,203.687164 6.704875,196.506897 
	C5.431196,192.211197 6.927131,189.265579 11.161842,188.800034 
	C20.661901,187.755661 25.088074,183.423019 24.911194,173.299454 
	C24.833036,168.826233 24.389805,166.633102 20.372704,164.551910 
	C8.830195,158.571899 8.926476,158.384308 15.221757,147.203400 
	C17.998730,142.271271 20.770393,137.336151 23.561066,132.411789 
	C25.552507,128.897720 28.591789,127.545174 31.843678,130.099365 
	C39.513237,136.123428 45.894802,135.742874 52.917072,128.554916 
	C55.849007,125.553802 57.258221,123.827805 55.996719,119.652397 
	C52.073524,106.667084 52.250031,106.626381 65.475258,102.940468 
	C72.049423,101.108223 78.596710,99.178741 85.179184,97.377396 
	C90.858292,95.823273 93.619621,96.819565 94.347633,102.356499 
	C95.540413,111.428261 99.774368,114.898750 109.027527,115.204300 
	C114.190689,115.374786 116.543442,114.545677 118.880219,110.161453 
	C124.773979,99.103722 124.976753,99.210991 135.972885,105.394142 
	C140.325668,107.841728 144.684494,110.278702 149.026398,112.745461 
	C155.191574,116.248085 155.628494,117.921486 152.097397,124.287682 
	C150.724869,126.762238 149.364517,129.243729 147.970184,131.705948 
	C147.378174,132.751328 146.773117,133.757172 148.144989,135.132416 
z"/>
<path opacity="1.000000" stroke="none" 
	d="
M144.861908,88.219803 
	C144.529388,87.021614 144.279831,86.227127 144.059128,85.424713 
	C141.704742,76.864929 142.237259,76.044518 150.830185,73.533691 
	C153.111404,72.867126 156.525558,73.343819 156.225220,69.159615 
	C155.927689,65.014526 159.525131,60.410290 153.026108,57.308590 
	C144.589462,53.282146 144.610886,52.014591 149.131683,43.930294 
	C151.324966,40.008175 153.579086,36.119469 155.728256,32.173466 
	C157.894531,28.196035 161.157181,26.752790 164.722763,29.650208 
	C170.316269,34.195526 174.517792,32.771297 179.154251,28.187807 
	C181.006973,26.356258 181.682648,25.036968 180.872360,22.727520 
	C180.322327,21.159885 179.979874,19.520765 179.483109,17.932846 
	C178.184433,13.781646 179.556625,11.180812 183.816360,10.035234 
	C189.762695,8.436080 195.709579,6.826993 201.601471,5.041417 
	C206.043503,3.695233 208.694763,5.173949 209.841293,9.588426 
	C209.925003,9.910717 209.978867,10.241237 210.071930,10.560552 
	C211.997803,17.169006 215.966797,19.707500 222.947388,18.984116 
	C224.410065,18.832539 224.875290,17.903723 225.447021,16.898106 
	C226.598633,14.872556 227.673920,12.798103 228.925476,10.836177 
	C230.840103,7.834821 233.491058,7.067157 236.648010,8.805707 
	C242.042084,11.776224 247.422287,14.774924 252.746017,17.868967 
	C256.047791,19.787884 256.742981,22.575836 254.912979,25.944902 
	C254.039169,27.553654 253.257507,29.235182 252.198959,30.715618 
	C250.556580,33.012592 250.710541,34.854206 252.847534,36.773464 
	C254.066238,37.868011 255.133560,39.256145 255.894241,40.708397 
	C257.286896,43.367210 259.192596,43.574059 261.688599,42.544384 
	C262.911926,42.039722 264.233429,41.767384 265.518250,41.418404 
	C270.922150,39.950588 272.944519,40.954453 274.482391,46.161232 
	C276.179199,51.906086 277.622162,57.726288 279.339905,63.464500 
	C280.624695,67.756454 278.911072,70.167816 274.917206,71.416252 
	C274.440582,71.565231 273.957001,71.694145 273.487091,71.861725 
	C271.171661,72.687500 267.659515,72.212166 266.760193,74.462204 
	C265.506653,77.598457 265.618652,81.296165 265.254944,84.764999 
	C265.099854,86.244255 266.516266,86.560730 267.465912,87.138870 
	C269.455933,88.350403 271.525909,89.435410 273.477722,90.703712 
	C276.289032,92.530472 277.021301,95.163597 275.477417,98.066628 
	C272.508362,103.649391 269.369904,109.144402 266.201935,114.618057 
	C264.524963,117.515549 261.984039,118.190033 258.929260,116.863586 
	C258.168152,116.533104 257.467743,116.064003 256.709839,115.724693 
	C254.477219,114.725113 252.285614,111.941383 250.155548,112.823166 
	C247.040009,114.112907 244.518448,116.841957 241.752045,118.968384 
	C240.549408,119.892792 241.073761,121.054337 241.373657,122.162025 
	C241.982391,124.410393 242.671356,126.638618 243.221939,128.900787 
	C244.085724,132.449860 242.586014,134.794418 239.198898,135.786011 
	C232.970718,137.609390 226.705551,139.309235 220.437820,140.993683 
	C216.272293,142.113159 213.640381,140.564835 212.710800,136.283920 
	C212.605392,135.798462 212.427582,135.324814 212.245193,134.860672 
	C211.363525,132.617081 211.968536,129.175583 209.485138,128.324905 
	C206.258102,127.219521 202.606812,127.072128 199.136520,127.061996 
	C197.030457,127.055847 196.763458,129.595215 195.883530,131.094208 
	C191.073303,139.288559 190.279892,139.533310 181.905380,134.812164 
	C177.990768,132.605301 174.119659,130.318695 170.167084,128.182495 
	C166.514221,126.208298 165.786407,123.448189 167.586517,119.848129 
	C167.809784,119.401611 168.055542,118.966217 168.295288,118.528084 
	C171.781494,112.157211 170.991455,108.312996 165.422226,103.572548 
	C164.318176,102.632790 163.323120,102.786728 162.199875,103.090874 
	C160.433136,103.569267 158.692657,104.145973 156.922363,104.609634 
	C151.592636,106.005547 149.553802,104.882217 148.043427,99.680305 
	C146.976227,96.004753 145.983963,92.307442 144.861908,88.219803 
z"/>
<path fill="var(--dark-blue)" opacity="1.0000" stroke="none" 
	d="
M55.341728,244.293793 
	C58.927696,239.538406 58.106144,235.988998 53.843506,232.410751 
	C49.363335,228.649887 45.870121,223.876968 43.196236,218.652954 
	C41.204006,214.760696 38.662216,213.297028 34.316128,214.830399 
	C30.904541,216.034073 26.541990,218.274719 23.964111,217.090164 
	C21.225554,215.831772 21.477455,210.627777 20.450855,207.146500 
	C17.687197,197.774719 17.698788,197.533066 27.318655,195.169525 
	C32.419331,193.916336 34.657486,191.518631 34.168037,186.108078 
	C33.639465,180.264999 34.542671,174.409027 36.406063,168.860992 
	C38.000835,164.112762 36.545383,161.157928 32.266834,159.130325 
	C31.216846,158.632736 30.236691,157.987274 29.226763,157.405746 
	C23.275330,153.978790 23.275560,153.978378 26.617498,148.070557 
	C30.528126,141.157425 30.528124,141.157440 37.676022,145.206268 
	C45.262321,149.503433 45.269096,149.510178 51.248180,143.520554 
	C55.153717,139.608139 59.383400,136.108063 64.333313,133.600784 
	C68.190254,131.647110 69.408432,129.018265 68.157242,124.644249 
	C65.082466,113.895172 65.250443,113.847115 76.194061,110.816780 
	C85.296516,108.296272 85.296509,108.296280 87.818466,117.240547 
	C89.801598,124.273827 90.341095,124.753365 97.366348,124.678497 
	C103.245422,124.615845 109.022514,125.323753 114.633621,126.998550 
	C118.862358,128.260757 121.786240,127.123840 123.601387,123.114487 
	C123.669868,122.963219 123.759125,122.821030 123.842896,122.677055 
	C129.167572,113.525162 129.101624,113.643280 138.293747,118.780632 
	C141.094055,120.345688 141.608444,121.505615 139.954803,124.428787 
	C133.892822,135.144638 134.027954,135.194824 142.101761,144.333908 
	C144.975662,147.586990 147.598389,151.066696 149.509384,154.966370 
	C151.393814,158.811874 154.135193,159.691238 158.129730,158.642639 
	C161.733414,157.696625 166.016556,154.572464 168.842316,156.738373 
	C171.196198,158.542603 171.269150,163.368759 172.272934,166.879150 
	C174.772919,175.622116 174.754745,175.627304 165.972076,178.048996 
	C158.519531,180.103958 158.300919,180.379837 158.320572,188.375427 
	C158.334579,194.074509 157.751862,199.701660 155.962570,205.124512 
	C154.633972,209.151169 155.872131,211.904694 159.540268,213.794479 
	C161.166977,214.632538 162.649445,215.812073 164.343552,216.445892 
	C168.849762,218.131790 169.307327,220.301025 166.661575,224.455322 
	C161.827454,232.045731 162.105682,232.222946 154.248169,227.763504 
	C147.519531,223.944748 147.150818,224.000427 141.950150,229.383530 
	C137.871948,233.604752 133.350952,237.297348 128.105469,239.942200 
	C124.319656,241.851044 123.334518,244.440643 124.444695,248.512192 
	C127.453125,259.545593 127.343796,259.575409 116.207802,262.694000 
	C107.418053,265.155548 107.418068,265.155548 104.818871,256.064026 
	C102.826263,249.094269 102.419930,248.780136 95.174355,248.795807 
	C89.647903,248.807770 84.095314,248.479568 78.889946,246.666641 
	C73.715729,244.864548 70.855766,246.614273 68.394737,251.135132 
	C63.664276,259.824890 63.616402,259.516083 54.955349,255.054886 
	C51.154083,253.096878 50.526657,251.289856 53.137878,248.057831 
	C53.963997,247.035339 54.485825,245.766998 55.341728,244.293793 
z"/>
<path fill="var(--dark-blue)" opacity="1.000000" stroke="none" 
	d="
M166.871094,69.139267 
	C167.283752,66.388809 167.306702,63.954735 168.127136,61.828358 
	C170.096725,56.723640 168.287888,53.709953 163.667328,51.369450 
	C158.624969,48.815277 158.535461,46.532646 162.297699,42.169239 
	C163.938278,40.266529 165.016663,41.773159 166.091583,42.398239 
	C173.005249,46.418602 174.237000,47.817741 180.949402,40.570736 
	C183.053467,38.299103 185.806580,36.464668 188.565643,35.001614 
	C192.852997,32.728149 193.985687,29.774984 192.522278,25.152269 
	C190.491013,18.735781 191.907486,17.184916 198.982681,16.458290 
	C200.656815,16.286358 201.014938,16.969028 201.362000,18.158192 
	C201.827896,19.754515 202.404938,21.327991 202.738190,22.951519 
	C203.541245,26.863819 205.778961,28.575508 209.826675,28.268694 
	C214.000656,27.952307 218.210388,28.299149 222.163803,29.666931 
	C227.328644,31.453846 230.669586,30.125896 233.037277,25.087503 
	C235.235016,20.410763 238.792389,20.242266 242.323639,24.044329 
	C243.919388,25.762465 242.317810,26.815592 241.722641,27.963125 
	C237.639435,35.835716 237.602142,35.822964 243.667969,42.308052 
	C246.070129,44.876240 248.186935,47.675056 249.766083,50.799465 
	C251.677490,54.581310 254.340576,55.489941 258.394348,54.317661 
	C265.681763,52.210278 265.626190,52.401173 267.353455,59.708515 
	C267.837616,61.756756 267.770844,62.837540 265.494202,63.232948 
	C264.027802,63.487633 262.626892,64.097977 261.169434,64.429466 
	C257.348450,65.298531 255.499100,67.488449 255.839233,71.551369 
	C256.189240,75.732285 255.820114,79.958336 254.467255,83.892586 
	C252.653381,89.167473 254.215439,92.391533 259.157928,94.733498 
	C263.623871,96.849678 263.754181,100.730133 259.976227,104.061844 
	C258.411957,105.441315 257.524658,104.010117 256.507324,103.499611 
	C248.298340,99.380417 248.368042,99.417870 241.736359,105.382828 
	C239.400650,107.483727 236.919830,109.614555 234.137421,110.984756 
	C229.451569,113.292290 228.389557,116.482811 230.138596,121.175644 
	C230.797379,122.943169 232.438232,125.536095 230.941940,126.643456 
	C228.801071,128.227859 225.772934,128.766571 223.037384,129.340546 
	C221.207993,129.724380 221.163986,127.810081 220.908508,126.612259 
	C219.427032,119.666542 218.526596,116.672127 209.015396,117.478104 
	C206.273926,117.710419 203.390106,116.952827 200.645599,116.325272 
	C193.503235,114.692139 192.989365,114.842484 189.501389,121.024246 
	C187.144882,125.200699 183.085068,125.446930 180.097748,121.660423 
	C178.722046,119.916695 180.357941,118.893433 180.971603,117.732033 
	C184.998993,110.109917 184.967102,110.185501 179.139252,103.742226 
	C177.030228,101.410469 174.895691,98.933258 173.508072,96.155151 
	C171.146957,91.428024 168.057144,89.885155 163.017166,91.842232 
	C161.302475,92.508072 158.695160,94.231995 157.507339,92.548805 
	C155.970657,90.371231 155.526505,87.329079 154.975479,84.586151 
	C154.666748,83.049400 156.375061,83.067467 157.418320,82.693733 
	C166.646805,79.387703 166.646210,79.386032 166.871094,69.139267 
z"/>
<path opacity="1.000000" stroke="none" 
	d="
M139.290131,173.877747 
	C145.722565,199.790344 131.741776,224.065781 107.248566,230.125488 
	C82.771156,236.181259 58.821449,221.738144 52.683189,197.219284 
	C46.935680,174.261261 60.487961,150.483978 83.183617,143.706711 
	C107.090210,136.567825 130.814362,149.192017 139.290131,173.877747 
z"/>
<path opacity="1.000000" stroke="none" 
	d="
M181.911072,91.992630 
	C171.296997,73.429039 176.613937,52.231636 194.080826,42.417164 
	C210.735168,33.059265 232.271194,39.107243 241.679047,55.784229 
	C250.746765,71.858238 245.676834,92.277557 230.115585,102.356293 
	C214.183517,112.675194 194.126968,108.476089 181.911072,91.992630 
z"/>
<path fill="var(--dark-blue)" opacity="1.000000" stroke="none" 
	d="
M129.249115,177.048553 
	C134.144653,197.702393 123.077003,215.920013 103.255348,220.422058 
	C85.130112,224.538803 66.804703,212.511566 62.655754,193.775970 
	C59.017834,177.348038 68.441048,160.306854 84.379395,154.490341 
	C100.778809,148.505554 119.061111,155.643524 126.862793,171.125122 
	C127.757408,172.900421 128.378845,174.813370 129.249115,177.048553 
z"/>
<path fill="var(--dark-blue)" opacity="1.000000" stroke="none" 
	d="
M188.199036,64.579681 
	C193.683014,53.028343 202.559341,47.617573 213.680695,48.754166 
	C224.039688,49.812847 232.461334,57.060570 234.965790,67.072235 
	C237.358582,76.637451 233.648163,86.815979 225.619659,92.710884 
	C217.787704,98.461479 206.594330,98.875519 198.326218,93.720444 
	C189.801086,88.405121 185.374130,78.378983 187.150803,68.324654 
	C187.352463,67.183517 187.753784,66.077667 188.199036,64.579681 
z"/>
</svg>